<?xml version="1.0" encoding="UTF-8"?>
<svg version="1.1" xmlns="http://www.w3.org/2000/svg" width="512" height="512">
<path d="M0 0 C1.56556065 -0.00462107 3.13111694 -0.01098202 4.69666433 -0.01890898 C8.95513209 -0.03546001 13.2132369 -0.02742154 17.4717052 -0.0149641 C22.08120232 -0.00585703 26.69064007 -0.0199112 31.30012512 -0.03088379 C40.31290896 -0.04861359 49.32555909 -0.04485381 58.33834803 -0.03323323 C65.66720142 -0.02417729 72.99601749 -0.02298422 80.32487488 -0.02732849 C81.3703736 -0.02794142 82.41587231 -0.02855436 83.49305281 -0.02918586 C85.61736684 -0.03046484 87.74168086 -0.0317617 89.86599487 -0.03307623 C109.75727463 -0.0444658 129.64848049 -0.03139382 149.53974813 -0.00987476 C166.58484466 0.00799473 183.6298322 0.00489017 200.67492676 -0.0135498 C220.49798643 -0.03498522 240.32098143 -0.04336731 260.14405107 -0.03110075 C262.26028473 -0.02982664 264.3765184 -0.02856915 266.49275208 -0.02732849 C268.05434552 -0.02640284 268.05434552 -0.02640284 269.6474863 -0.02545848 C276.962369 -0.0220136 284.27721048 -0.02781532 291.59208679 -0.0372467 C300.51389063 -0.04849778 309.4355538 -0.04536149 318.35734165 -0.02412373 C322.90408112 -0.01365504 327.45058657 -0.00941962 331.99732399 -0.02272034 C336.16852651 -0.0347374 340.33928056 -0.02793031 344.51044303 -0.00681013 C346.01024717 -0.00238315 347.51009009 -0.00452113 349.0098688 -0.01431328 C362.17896634 -0.09362387 374.54239453 2.0630599 386.28381348 8.32043457 C386.94880859 8.66372803 387.61380371 9.00702148 388.2989502 9.36071777 C393.64205291 12.19528789 398.35035747 15.53045825 402.90881348 19.50793457 C403.87689941 20.28008301 404.84498535 21.05223145 405.84240723 21.84777832 C419.97462459 33.64454936 428.53417304 53.30287887 430.28106022 71.35460281 C430.4194337 75.42874767 430.4434307 79.48560728 430.41674805 83.56115723 C430.42136917 85.12259309 430.42773015 86.68402458 430.43565702 88.24544716 C430.45220737 92.49251367 430.44416991 96.73921624 430.43171215 100.9862833 C430.42260479 105.58351043 430.43665939 110.18067804 430.44763184 114.77789307 C430.46536133 123.76661355 430.46160199 132.75519997 430.44998127 141.74392557 C430.44092522 149.05323284 430.43973232 156.36250269 430.44407654 163.67181396 C430.44468947 164.71453732 430.4453024 165.75726068 430.44593391 166.83158171 C430.44721289 168.95025874 430.44850974 171.06893576 430.44982427 173.18761277 C430.46121376 193.02595749 430.44814201 212.8642281 430.42662281 232.70256066 C430.40875332 249.70217551 430.41185789 266.70168107 430.43029785 283.70129395 C430.45173343 303.47161595 430.46011527 323.24187312 430.4478488 343.01220512 C430.44657468 345.1228218 430.4453172 347.23343848 430.44407654 349.34405518 C430.44345944 350.38235336 430.44284233 351.42065154 430.44220653 352.49041331 C430.43876169 359.78575939 430.44456326 367.08106413 430.45399475 374.37640381 C430.46524601 383.27441921 430.46210916 392.17229358 430.44087178 401.07029295 C430.43040332 405.60488103 430.42616725 410.13923447 430.43946838 414.6738205 C430.45148595 418.8339209 430.44467757 422.99357167 430.42355818 427.15363193 C430.4191314 428.6493984 430.4212687 430.14520375 430.43106133 431.64094472 C430.51051078 444.79700466 428.34718398 457.15372013 422.09631348 468.88293457 C421.75302002 469.54792969 421.40972656 470.2129248 421.05603027 470.89807129 C418.22146016 476.241174 414.88628979 480.94947857 410.90881348 485.50793457 C410.13666504 486.47602051 409.3645166 487.44410645 408.56896973 488.44152832 C396.77097754 502.57520858 377.10951428 511.13605524 359.05558491 512.88018131 C354.97098705 513.01858512 350.90362783 513.04254689 346.81762695 513.01586914 C345.25206631 513.02049022 343.68651002 513.02685116 342.12096262 513.03477812 C337.86249486 513.05132915 333.60439006 513.04329068 329.34592175 513.03083324 C324.73642464 513.02172617 320.12698688 513.03578034 315.51750183 513.04675293 C306.504718 513.06448273 297.49206786 513.06072295 288.47927892 513.04910237 C281.15042554 513.04004644 273.82160946 513.03885336 266.49275208 513.04319763 C265.44725336 513.04381056 264.40175464 513.0444235 263.32457414 513.045055 C261.20026011 513.04633398 259.07594609 513.04763084 256.95163208 513.04894537 C237.06035232 513.06033494 217.16914646 513.04726296 197.27787882 513.0257439 C180.23278229 513.00787441 163.18779476 513.01097897 146.1427002 513.02941895 C126.31964053 513.05085436 106.49664552 513.05923645 86.67357588 513.04696989 C84.55734222 513.04569578 82.44110855 513.04443829 80.32487488 513.04319763 C79.28381258 513.04258053 78.24275029 513.04196343 77.17014065 513.04132763 C69.85525795 513.03788274 62.54041648 513.04368446 55.22554016 513.05311584 C46.30373633 513.06436692 37.38207315 513.06123063 28.46028531 513.03999287 C23.91354584 513.02952418 19.36704038 513.02528876 14.82030296 513.03858948 C10.64910045 513.05060654 6.47834639 513.04379945 2.30718392 513.02267927 C0.80737978 513.01825229 -0.69246314 513.02039027 -2.19224185 513.03018242 C-15.36133939 513.10949301 -27.72476758 510.95280925 -39.46618652 504.69543457 C-40.13118164 504.35214111 -40.79617676 504.00884766 -41.48132324 503.65515137 C-46.82442596 500.82058126 -51.53273052 497.48541089 -56.09118652 493.50793457 C-57.05927246 492.73578613 -58.0273584 491.9636377 -59.02478027 491.16809082 C-68.55324978 483.21426657 -74.76442541 471.96715264 -79.09118652 460.50793457 C-79.35063191 459.84724462 -79.6100773 459.18655467 -79.87738466 458.50584382 C-82.60895213 450.65239187 -82.51681307 442.88164601 -82.4855957 434.67634583 C-82.49049055 433.07797877 -82.4966831 431.47961527 -82.50405359 429.88125771 C-82.52040124 425.50894612 -82.51814575 421.13681545 -82.51267862 416.76448405 C-82.51000199 412.04106175 -82.5245522 407.31768698 -82.53677368 402.59428406 C-82.557804 393.3475619 -82.56236987 384.10090247 -82.5605858 374.85415921 C-82.55927682 367.33497218 -82.56308925 359.81580468 -82.57051086 352.29662132 C-82.57261013 350.12852023 -82.57470773 347.96041914 -82.57680368 345.79231805 C-82.57784721 344.71309156 -82.57889074 343.63386508 -82.57996589 342.52193477 C-82.59885902 322.12089687 -82.59782107 301.71989494 -82.59099656 281.31885191 C-82.58542335 262.67363577 -82.60623878 244.02855713 -82.63935703 225.38337312 C-82.67312807 206.221352 -82.688258 187.05939667 -82.68364 167.89734524 C-82.68139857 157.14626295 -82.68659061 146.39530768 -82.71153259 135.64425087 C-82.73258995 126.48991918 -82.73609388 117.33578416 -82.717233 108.18144426 C-82.70810202 103.51519577 -82.70685078 98.84931355 -82.72758865 94.18309402 C-82.74640165 89.90245054 -82.74168078 85.62247065 -82.71904284 81.34185161 C-82.71488292 79.80218888 -82.71896822 78.26247423 -82.73263878 76.72286657 C-82.90301735 56.11318978 -74.80259999 37.91386291 -60.60778809 23.01721191 C-44.16699777 6.65582014 -22.84220667 -0.14913816 0 0 Z " fill="#FEFEFE" transform="translate(82.0911865234375,-0.5079345703125)"/>
<path d="M0 0 C1.50675293 0.00519653 1.50675293 0.00519653 3.04394531 0.01049805 C11.29979807 0.13027276 18.80785094 1.22093114 26.8125 3.3125 C27.73417969 3.50585938 28.65585937 3.69921875 29.60546875 3.8984375 C53.13156652 9.25001661 76.08866281 27.13727755 89.03613281 47.20947266 C100.40142117 65.7927639 105.97388616 83.68280117 106.0625 105.4375 C106.0934375 107.30148437 106.0934375 107.30148437 106.125 109.203125 C106.16027785 117.65216959 105.09031553 125.18385246 102.8125 133.3125 C102.61897949 134.03163574 102.42545898 134.75077148 102.22607422 135.49169922 C94.98596792 161.21689346 77.69475917 183.51566654 54.8125 197.3125 C46.27085518 202.03925859 37.19508503 205.64235722 27.8125 208.3125 C26.86503906 208.6115625 25.91757812 208.910625 24.94140625 209.21875 C16.58553823 211.47201778 8.36668322 211.62650093 -0.25 211.6875 C-1.42111328 211.70135742 -2.59222656 211.71521484 -3.79882812 211.72949219 C-27.13547907 211.60529152 -49.34074382 201.9566941 -67.1875 187.3125 C-67.86296875 186.77753906 -68.5384375 186.24257813 -69.234375 185.69140625 C-88.85783974 169.67136535 -101.14844785 144.09886462 -104.1875 119.3125 C-104.47462002 114.53777538 -104.52142215 109.78249453 -104.5 105 C-104.49581055 103.72342529 -104.49162109 102.44685059 -104.48730469 101.1315918 C-104.33434015 88.37776708 -102.65894743 76.94373824 -97.1875 65.3125 C-96.70539063 64.24644531 -96.22328125 63.18039063 -95.7265625 62.08203125 C-83.53056331 36.28720667 -62.94720627 16.52083239 -36.1875 6.3125 C-31.26402997 4.64638276 -26.26813278 3.40779116 -21.1875 2.3125 C-20.43799072 2.13662354 -19.68848145 1.96074707 -18.91625977 1.77954102 C-12.56731064 0.36873313 -6.49442838 -0.03673815 0 0 Z " fill="#FEFEFE" transform="translate(295.1875,172.6875)"/>
<path d="M0 0 C0.80824219 0.01546875 1.61648437 0.0309375 2.44921875 0.046875 C4.62581585 0.20128571 6.79552192 0.45656173 8.95672607 0.75758362 C13.27859986 1.30339233 17.51706318 1.37085207 21.86816406 1.33178711 C22.68220703 1.32872055 23.49625 1.32565399 24.33496094 1.32249451 C26.08749652 1.31538667 27.84002415 1.30602208 29.59253693 1.29459953 C32.36668936 1.27710049 35.14078339 1.26687693 37.91497803 1.25868225 C45.79721585 1.23431467 53.67937409 1.19852388 61.56152344 1.15405273 C66.39474728 1.12728824 71.22792658 1.11023666 76.06121063 1.09918404 C77.90003873 1.0929767 79.73885808 1.08297443 81.57764435 1.06910515 C84.14329226 1.04991058 86.70870408 1.04299657 89.27441406 1.03881836 C90.41218292 1.02567596 90.41218292 1.02567596 91.57293701 1.01226807 C95.31317673 1.01922928 98.1390938 1.15900118 101.3125 3.25 C101.5625 6.0625 101.5625 6.0625 101.3125 9.25 C97.51014918 13.41967975 92.03174034 12.98786828 86.77539062 13.33398438 C81.31590337 13.81356666 77.81673999 15.06186036 73.3125 18.25 C65.86562502 28.47235069 66.19054076 44.38911737 65.75 56.4375 C65.7075415 57.542146 65.66508301 58.64679199 65.62133789 59.78491211 C65.34722944 67.27739355 65.17834619 74.75229276 65.3125 82.25 C65.77398437 81.18523437 66.23546875 80.12046875 66.7109375 79.0234375 C73.16040375 64.52347835 81.34495395 52.73684274 92.3125 41.25 C92.84875 40.65058594 93.385 40.05117187 93.9375 39.43359375 C113.08244016 18.80492073 143.24830838 8.22547755 170.70703125 7.0234375 C201.93795409 6.16901304 232.27745429 17.73406331 255.06884766 39.09960938 C273.08541878 56.40223712 285.44601631 77.66543214 290.3125 102.25 C290.57305176 103.38320679 290.57305176 103.38320679 290.83886719 104.53930664 C295.8409967 127.07786793 291.99528054 151.51445318 282.3125 172.25 C281.90427002 173.148396 281.90427002 173.148396 281.48779297 174.06494141 C275.66577418 186.81485631 267.88491347 197.09894323 258.3125 207.25 C257.30123047 208.37535156 257.30123047 208.37535156 256.26953125 209.5234375 C242.0573195 224.72223806 222.11334745 233.90498596 202.3125 239.25 C201.27867187 239.5696875 200.24484375 239.889375 199.1796875 240.21875 C190.88986417 242.46261195 182.73680791 242.52852112 174.1875 242.5625 C173.00768555 242.56805908 171.82787109 242.57361816 170.61230469 242.5793457 C159.87740774 242.49161289 149.72923803 241.11437141 139.5625 237.625 C138.80227539 237.36557617 138.04205078 237.10615234 137.25878906 236.83886719 C108.07250909 226.52856239 83.88101198 205.98980221 70.19140625 178.0234375 C68.50079356 174.45980173 66.88756046 170.86605521 65.3125 167.25 C65.30839111 168.00804932 65.30428223 168.76609863 65.30004883 169.54711914 C65.04631926 196.46884134 63.56253996 222.54712127 43.890625 242.8828125 C39.97216824 246.48066826 35.80476727 249.41905214 31.3125 252.25 C30.66925781 252.69859375 30.02601563 253.1471875 29.36328125 253.609375 C23.48111044 257.60481177 16.95695178 259.8253281 10.3125 262.25 C9.50167969 262.60707031 8.69085938 262.96414063 7.85546875 263.33203125 C-5.62555473 268.19845294 -20.87173478 265.69532514 -33.6875 260.25 C-42.28954834 255.65926954 -48.46058889 249.58432237 -51.5625 240.25 C-53.51035419 232.6672819 -53.22090925 226.31681851 -49.6875 219.25 C-46.9546735 215.00940716 -44.49191156 212.85147052 -39.6875 211.25 C-34.0029256 210.64931044 -27.9445515 210.15035915 -22.6875 212.75 C-17.73484921 216.87720899 -15.09641467 220.71472902 -14.0625 227.125 C-14.32603404 231.58750969 -16.47578082 235.05294614 -18.55859375 238.921875 C-20.01791452 241.93140849 -20.39070616 243.96837126 -19.6875 247.25 C-17.8204009 249.55275556 -16.33102259 250.92823871 -13.6875 252.25 C-3.41049364 253.09260402 4.37801032 251.94257135 13.125 246.5 C36.14299604 222.82434693 26.47411932 164.95725541 26.44287109 134.41967773 C26.43719873 128.83250494 26.44055982 123.24537999 26.44629288 117.65820885 C26.46400955 97.52945127 26.44905362 77.39979883 25.98556137 57.27540779 C25.94911234 55.69167663 25.91507601 54.10788756 25.88379288 52.52404594 C26.38462442 34.613449 26.38462442 34.613449 19.3125 19.25 C12.99728768 14.91817806 6.73726221 13.54979579 -0.8046875 12.8046875 C-3.92977202 12.20338397 -5.44046979 11.48101812 -7.6875 9.25 C-8.14526039 6.11107164 -8.38077664 4.18899494 -6.453125 1.578125 C-4.15706981 -0.14899616 -2.84858189 -0.08943742 0 0 Z M108.3125 51.25 C107.12720703 52.41789062 107.12720703 52.41789062 105.91796875 53.609375 C96.23627775 63.7149579 89.01311852 76.11138594 84.3125 89.25 C83.87164062 90.41402344 83.87164062 90.41402344 83.421875 91.6015625 C79.66609411 102.02201339 78.9501667 112.43084017 79 123.4375 C79.00491455 124.71818359 79.0098291 125.99886719 79.01489258 127.31835938 C79.19252395 141.68190525 81.40417535 154.0365457 87.3125 167.25 C87.828125 168.40371094 88.34375 169.55742187 88.875 170.74609375 C92.796316 179.03350465 97.53012019 186.15155883 103.3125 193.25 C103.88742188 193.97832031 104.46234375 194.70664062 105.0546875 195.45703125 C118.75767906 212.07764541 139.6336105 223.30861191 160.3125 228.25 C160.9521167 228.42732666 161.5917334 228.60465332 162.25073242 228.78735352 C169.13769541 230.56588539 175.91746224 230.59564686 183 230.5625 C184.87619019 230.55404053 184.87619019 230.55404053 186.7902832 230.54541016 C195.39290622 230.43200352 203.0852218 229.91235523 211.3125 227.25 C211.97217773 227.04600586 212.63185547 226.84201172 213.31152344 226.63183594 C240.5966019 218.11532122 263.96992826 200.72514398 277.5390625 175.17578125 C285.66542998 159.05574457 289.49090689 143.16572517 289.5 125.125 C289.51224609 123.86945313 289.52449219 122.61390625 289.53710938 121.3203125 C289.57987154 93.83849584 278.07511087 69.6891099 259.1171875 50.02734375 C238.14630843 29.26091614 211.06145882 18.96159949 181.70874023 18.86499023 C153.30016697 19.2758718 128.15992719 31.43088583 108.3125 51.25 Z " fill="#FBBD0A" transform="translate(111.6875,153.75)"/>
<path d="M0 0 C1.56556065 -0.00462107 3.13111694 -0.01098202 4.69666433 -0.01890898 C8.95513209 -0.03546001 13.2132369 -0.02742154 17.4717052 -0.0149641 C22.08120232 -0.00585703 26.69064007 -0.0199112 31.30012512 -0.03088379 C40.31290896 -0.04861359 49.32555909 -0.04485381 58.33834803 -0.03323323 C65.66720142 -0.02417729 72.99601749 -0.02298422 80.32487488 -0.02732849 C81.3703736 -0.02794142 82.41587231 -0.02855436 83.49305281 -0.02918586 C85.61736684 -0.03046484 87.74168086 -0.0317617 89.86599487 -0.03307623 C109.75727463 -0.0444658 129.64848049 -0.03139382 149.53974813 -0.00987476 C166.58484466 0.00799473 183.6298322 0.00489017 200.67492676 -0.0135498 C220.49798643 -0.03498522 240.32098143 -0.04336731 260.14405107 -0.03110075 C262.26028473 -0.02982664 264.3765184 -0.02856915 266.49275208 -0.02732849 C268.05434552 -0.02640284 268.05434552 -0.02640284 269.6474863 -0.02545848 C276.962369 -0.0220136 284.27721048 -0.02781532 291.59208679 -0.0372467 C300.51389063 -0.04849778 309.4355538 -0.04536149 318.35734165 -0.02412373 C322.90408112 -0.01365504 327.45058657 -0.00941962 331.99732399 -0.02272034 C336.16852651 -0.0347374 340.33928056 -0.02793031 344.51044303 -0.00681013 C346.01024717 -0.00238315 347.51009009 -0.00452113 349.0098688 -0.01431328 C362.17896634 -0.09362387 374.54239453 2.0630599 386.28381348 8.32043457 C386.94880859 8.66372803 387.61380371 9.00702148 388.2989502 9.36071777 C393.64205291 12.19528789 398.35035747 15.53045825 402.90881348 19.50793457 C403.87689941 20.28008301 404.84498535 21.05223145 405.84240723 21.84777832 C419.97462459 33.64454936 428.53417304 53.30287887 430.28106022 71.35460281 C430.4194337 75.42874767 430.4434307 79.48560728 430.41674805 83.56115723 C430.42136917 85.12259309 430.42773015 86.68402458 430.43565702 88.24544716 C430.45220737 92.49251367 430.44416991 96.73921624 430.43171215 100.9862833 C430.42260479 105.58351043 430.43665939 110.18067804 430.44763184 114.77789307 C430.46536133 123.76661355 430.46160199 132.75519997 430.44998127 141.74392557 C430.44092522 149.05323284 430.43973232 156.36250269 430.44407654 163.67181396 C430.44468947 164.71453732 430.4453024 165.75726068 430.44593391 166.83158171 C430.44721289 168.95025874 430.44850974 171.06893576 430.44982427 173.18761277 C430.46121376 193.02595749 430.44814201 212.8642281 430.42662281 232.70256066 C430.40875332 249.70217551 430.41185789 266.70168107 430.43029785 283.70129395 C430.45173343 303.47161595 430.46011527 323.24187312 430.4478488 343.01220512 C430.44657468 345.1228218 430.4453172 347.23343848 430.44407654 349.34405518 C430.44345944 350.38235336 430.44284233 351.42065154 430.44220653 352.49041331 C430.43876169 359.78575939 430.44456326 367.08106413 430.45399475 374.37640381 C430.46524601 383.27441921 430.46210916 392.17229358 430.44087178 401.07029295 C430.43040332 405.60488103 430.42616725 410.13923447 430.43946838 414.6738205 C430.45148595 418.8339209 430.44467757 422.99357167 430.42355818 427.15363193 C430.4191314 428.6493984 430.4212687 430.14520375 430.43106133 431.64094472 C430.51051078 444.79700466 428.34718398 457.15372013 422.09631348 468.88293457 C421.75302002 469.54792969 421.40972656 470.2129248 421.05603027 470.89807129 C418.22146016 476.241174 414.88628979 480.94947857 410.90881348 485.50793457 C410.13666504 486.47602051 409.3645166 487.44410645 408.56896973 488.44152832 C396.77097754 502.57520858 377.10951428 511.13605524 359.05558491 512.88018131 C354.97098705 513.01858512 350.90362783 513.04254689 346.81762695 513.01586914 C345.25206631 513.02049022 343.68651002 513.02685116 342.12096262 513.03477812 C337.86249486 513.05132915 333.60439006 513.04329068 329.34592175 513.03083324 C324.73642464 513.02172617 320.12698688 513.03578034 315.51750183 513.04675293 C306.504718 513.06448273 297.49206786 513.06072295 288.47927892 513.04910237 C281.15042554 513.04004644 273.82160946 513.03885336 266.49275208 513.04319763 C265.44725336 513.04381056 264.40175464 513.0444235 263.32457414 513.045055 C261.20026011 513.04633398 259.07594609 513.04763084 256.95163208 513.04894537 C237.06035232 513.06033494 217.16914646 513.04726296 197.27787882 513.0257439 C180.23278229 513.00787441 163.18779476 513.01097897 146.1427002 513.02941895 C126.31964053 513.05085436 106.49664552 513.05923645 86.67357588 513.04696989 C84.55734222 513.04569578 82.44110855 513.04443829 80.32487488 513.04319763 C79.28381258 513.04258053 78.24275029 513.04196343 77.17014065 513.04132763 C69.85525795 513.03788274 62.54041648 513.04368446 55.22554016 513.05311584 C46.30373633 513.06436692 37.38207315 513.06123063 28.46028531 513.03999287 C23.91354584 513.02952418 19.36704038 513.02528876 14.82030296 513.03858948 C10.64910045 513.05060654 6.47834639 513.04379945 2.30718392 513.02267927 C0.80737978 513.01825229 -0.69246314 513.02039027 -2.19224185 513.03018242 C-15.36133939 513.10949301 -27.72476758 510.95280925 -39.46618652 504.69543457 C-40.13118164 504.35214111 -40.79617676 504.00884766 -41.48132324 503.65515137 C-46.82442596 500.82058126 -51.53273052 497.48541089 -56.09118652 493.50793457 C-57.05927246 492.73578613 -58.0273584 491.9636377 -59.02478027 491.16809082 C-68.55324978 483.21426657 -74.76442541 471.96715264 -79.09118652 460.50793457 C-79.35063191 459.84724462 -79.6100773 459.18655467 -79.87738466 458.50584382 C-82.60895213 450.65239187 -82.51681307 442.88164601 -82.4855957 434.67634583 C-82.49049055 433.07797877 -82.4966831 431.47961527 -82.50405359 429.88125771 C-82.52040124 425.50894612 -82.51814575 421.13681545 -82.51267862 416.76448405 C-82.51000199 412.04106175 -82.5245522 407.31768698 -82.53677368 402.59428406 C-82.557804 393.3475619 -82.56236987 384.10090247 -82.5605858 374.85415921 C-82.55927682 367.33497218 -82.56308925 359.81580468 -82.57051086 352.29662132 C-82.57261013 350.12852023 -82.57470773 347.96041914 -82.57680368 345.79231805 C-82.57784721 344.71309156 -82.57889074 343.63386508 -82.57996589 342.52193477 C-82.59885902 322.12089687 -82.59782107 301.71989494 -82.59099656 281.31885191 C-82.58542335 262.67363577 -82.60623878 244.02855713 -82.63935703 225.38337312 C-82.67312807 206.221352 -82.688258 187.05939667 -82.68364 167.89734524 C-82.68139857 157.14626295 -82.68659061 146.39530768 -82.71153259 135.64425087 C-82.73258995 126.48991918 -82.73609388 117.33578416 -82.717233 108.18144426 C-82.70810202 103.51519577 -82.70685078 98.84931355 -82.72758865 94.18309402 C-82.74640165 89.90245054 -82.74168078 85.62247065 -82.71904284 81.34185161 C-82.71488292 79.80218888 -82.71896822 78.26247423 -82.73263878 76.72286657 C-82.90301735 56.11318978 -74.80259999 37.91386291 -60.60778809 23.01721191 C-44.16699777 6.65582014 -22.84220667 -0.14913816 0 0 Z M-57.7454834 35.89172363 C-64.0244793 43.43289795 -68.37427637 52.10634945 -71.09118652 61.50793457 C-71.43222286 62.57530161 -71.7732592 63.64266865 -72.12462997 64.74238014 C-73.71693962 71.21476519 -73.36687386 77.86555085 -73.34515381 84.48727417 C-73.34746001 86.01735413 -73.35063761 87.54743298 -73.3546083 89.07750952 C-73.36294316 93.27014276 -73.35883695 97.46268473 -73.35263586 101.65531826 C-73.34810695 106.18166148 -73.35509737 110.70798911 -73.3605957 115.23432922 C-73.36948708 124.09730287 -73.3675687 132.96024264 -73.36177042 141.82321762 C-73.35725237 149.02784518 -73.35664165 156.23246325 -73.35881805 163.43709183 C-73.35912452 164.4627797 -73.35943099 165.48846757 -73.35974674 166.54523689 C-73.3603862 168.62897431 -73.36103462 170.71271173 -73.36169192 172.79644914 C-73.36739461 192.33462426 -73.36083857 211.8727806 -73.35009119 231.41095264 C-73.34115841 248.16887529 -73.34270559 264.92677023 -73.35192871 281.68469238 C-73.36263701 301.15019488 -73.36684249 320.61568091 -73.36070418 340.08118594 C-73.3600671 342.15783922 -73.35943835 344.2344925 -73.35881805 346.31114578 C-73.3585095 347.33286367 -73.35820095 348.35458155 -73.35788305 349.40726059 C-73.35615759 356.60066732 -73.35906806 363.7940636 -73.36377716 370.98746872 C-73.36939232 379.75766541 -73.36785627 388.52782631 -73.35721567 397.29801892 C-73.35196713 401.77112197 -73.34988827 406.2441654 -73.35651398 410.71726799 C-73.36249261 414.81558367 -73.35916682 418.9137847 -73.34855887 423.01209004 C-73.34633291 424.49115653 -73.34744299 425.97023279 -73.35231045 427.44929294 C-73.41516425 448.14311469 -67.74355947 467.16424644 -52.96618652 482.25793457 C-36.35604803 498.54393766 -17.37305427 502.8243022 5.28410339 502.78208923 C6.80852307 502.78655056 8.33294043 502.79186752 9.85735446 502.79795796 C14.01602231 502.81204065 18.17461507 502.81380311 22.33330333 502.81336105 C26.8304076 502.81501787 31.3274817 502.82810025 35.8245697 502.83955383 C45.64286886 502.86233429 55.4611463 502.87031662 65.2794683 502.87538028 C71.4172248 502.87864476 77.55497507 502.88517166 83.69272804 502.89238167 C100.70835384 502.91193685 117.72397387 502.92834795 134.73961163 502.9312582 C135.82692978 502.93144577 136.91424794 502.93163334 138.03451513 502.9318266 C140.23845756 502.93219283 142.44239999 502.93255653 144.64634242 502.93291771 C145.74027965 502.93310052 146.83421687 502.93328333 147.96130371 502.93347168 C149.05658588 502.93365223 150.15186805 502.93383278 151.28034059 502.9340188 C169.02522922 502.93756 186.76999647 502.96458391 204.51484301 503.00196957 C222.76162172 503.0401032 241.00834026 503.05941604 259.25515968 503.05971771 C269.48873197 503.06030106 279.72215935 503.0687145 289.9556942 503.09771538 C298.66927735 503.12229671 307.38266268 503.12946655 316.09627118 503.11446785 C320.53596462 503.10732709 324.97526796 503.10803322 329.41491699 503.13087845 C333.49080635 503.15164971 337.5660102 503.1487016 341.6418936 503.1280036 C343.10482085 503.12454308 344.56779943 503.12927012 346.03065952 503.14370804 C365.2664217 503.32109956 383.606682 497.33476816 397.63928223 483.80090332 C398.38822754 483.04422363 399.13717285 482.28754395 399.90881348 481.50793457 C400.9548877 480.51213379 400.9548877 480.51213379 402.02209473 479.49621582 C413.5421952 467.75242408 420.02187986 450.22028779 420.04024124 433.95692444 C420.04408239 432.67383141 420.04792353 431.39073837 420.05188107 430.06876373 C420.05110097 428.65729263 420.05022221 427.24582158 420.04925537 425.83435059 C420.05184119 424.32519709 420.05485495 422.81604427 420.05825877 421.3068924 C420.06630678 417.16728601 420.06811712 413.02769698 420.06885624 408.8880837 C420.07071066 404.42025239 420.07826 399.95243001 420.08499146 395.48460388 C420.09856021 385.71779503 420.10459737 375.95099029 420.10900211 366.18417358 C420.1117673 360.08180657 420.11600519 353.97944114 420.12050629 347.8770752 C420.13269762 330.97059224 420.14299683 314.06411055 420.14638138 297.15762329 C420.14660094 296.07602924 420.14682051 294.99443519 420.14704673 293.88006556 C420.14726501 292.79592824 420.14748329 291.71179092 420.14770818 290.59480095 C420.14815164 288.3980395 420.1485982 286.20127805 420.14904785 284.0045166 C420.14926928 282.91485415 420.14949071 281.82519169 420.14971885 280.70250916 C420.1536647 263.05621808 420.17111285 245.40996834 420.19440737 227.76369321 C420.21814834 209.63234856 420.2305845 191.50102463 420.2317493 173.36966419 C420.23266457 163.19536397 420.23837963 153.02111762 420.25656891 142.84683228 C420.27200705 134.18105155 420.27706854 125.51534134 420.26883081 116.84954947 C420.26493728 112.43250819 420.26579009 108.01560875 420.27988815 103.59858513 C420.29270541 99.54557089 420.29136168 95.49280393 420.27929744 91.43978965 C420.27735388 89.9828079 420.28035596 88.52580815 420.2891418 87.06885159 C420.41364443 65.00449999 414.89985639 46.39826323 399.28381348 30.25793457 C386.64803752 17.77301553 369.09079831 10.39649005 351.34218597 10.37650681 C350.05560955 10.37266566 348.76903312 10.36882452 347.44346952 10.36486697 C346.02806817 10.36564708 344.61266687 10.36652584 343.19726562 10.36749268 C341.68398733 10.36490688 340.17070971 10.36189312 338.65743303 10.35848927 C334.50642508 10.35044111 330.35543444 10.34863092 326.20441961 10.34789181 C321.72431826 10.34603742 317.24422582 10.33848809 312.76412964 10.33175659 C302.97046214 10.31818773 293.17679874 10.31215066 283.3831234 10.30774593 C277.26400542 10.30498077 271.14488901 10.30074288 265.02577209 10.29624176 C248.072966 10.28405042 231.12016116 10.2737512 214.16735077 10.27036667 C213.08278911 10.2701471 211.99822744 10.26992754 210.88080028 10.26970132 C209.25013187 10.2693739 209.25013187 10.2693739 207.58652067 10.26903987 C205.38373025 10.26859641 203.18093983 10.26814984 200.97814941 10.2677002 C199.88549635 10.26747877 198.79284328 10.26725734 197.66707951 10.2670292 C179.97228952 10.26308333 162.27754078 10.24563514 144.58276671 10.22234067 C126.40170152 10.1985999 108.22065699 10.18616356 90.03957605 10.18499875 C79.83733022 10.18408346 69.6351381 10.17836814 59.4329071 10.16017914 C50.74333786 10.14474126 42.05383894 10.13967935 33.36425859 10.14791724 C28.93506585 10.15181086 24.50601457 10.1509575 20.07683945 10.13685989 C16.01272289 10.1240432 11.94885295 10.12538589 7.88473636 10.13745061 C6.42371695 10.13939427 4.9626796 10.13639163 3.50168532 10.12760624 C-21.02886263 9.98957655 -41.19333049 17.30185727 -57.7454834 35.89172363 Z " fill="#FBBC05" transform="translate(82.0911865234375,-0.5079345703125)"/>
<path d="M0 0 C5.58498526 -0.10856343 11.12670632 -0.02395548 16.70146275 0.35625553 C26.49809248 1.02307774 36.25076516 1.13096418 46.06640625 1.09765625 C47.72362729 1.09578424 49.38084889 1.09436406 51.03807068 1.09336853 C55.33687957 1.08960484 59.63565305 1.07982947 63.93444824 1.06866455 C68.34626792 1.05831586 72.75809348 1.0538425 77.16992188 1.04882812 C85.77996392 1.03819969 94.38997752 1.0212002 103 1 C103.33 2.32 103.66 3.64 104 5 C101.30298183 6.34850909 99.01235081 6.18816948 96 6.3125 C88.37301838 6.86090023 82.4655741 8.66450441 76.125 12.9375 C62.2194589 32.97783864 66.86331975 69.79626879 66.77020454 92.96817207 C66.75346205 96.98549184 66.73042332 101.00273057 66.70530701 105.02000427 C66.63510951 116.42287774 66.57422975 127.8257845 66.52319336 139.22875977 C66.49473398 145.57192255 66.45930109 151.9150095 66.41653961 158.25809234 C66.394397 161.59157945 66.37692797 164.92493186 66.36609077 168.25848579 C66.25486882 201.93170732 66.25486882 201.93170732 61.25 214.25 C60.98614502 214.919104 60.72229004 215.58820801 60.45043945 216.27758789 C52.68000471 235.41387101 37.66817692 246.99034301 19 255 C5.22463191 260.25406667 -11.04431207 261.39891577 -25 256 C-33.42755343 252.09632807 -39.07350899 246.72014679 -43.9375 238.875 C-46.19773513 232.65220075 -46.57604312 224.46729487 -43.828125 218.421875 C-41.20126336 214.76593354 -38.2855678 211.52375744 -34 210 C-28.02589051 209.08598009 -23.41822047 209.1587598 -18.4375 212.8125 C-15.7083306 215.11044929 -13.32505189 217.29604375 -12.62890625 220.9453125 C-12.45257655 226.73307552 -13.89578472 229.9773553 -16.86328125 234.875 C-18.6361953 238.18931356 -18.7459814 240.33790951 -18 244 C-15.56122985 247.81057836 -13.34265244 250.55244919 -9 252 C1.56765507 252.76110535 10.55500806 251.79271091 19 245 C24.99044122 239.45621448 27.73172402 233.76712684 30 226 C30.21398437 225.33226562 30.42796875 224.66453125 30.6484375 223.9765625 C33.93556147 212.68600627 33.14617191 200.26289632 33.12939453 188.61572266 C33.13075301 187.01254741 33.13253544 185.40937248 33.13470459 183.80619812 C33.13922657 179.48997483 33.1375109 175.17377571 33.1343255 170.85755205 C33.13177377 166.31489534 33.1341473 161.77224054 33.13571167 157.22958374 C33.13752557 149.60227085 33.13514793 141.97496767 33.13037109 134.34765625 C33.1249339 125.56525188 33.12669035 116.78287075 33.1321975 108.00046694 C33.13675556 100.42465951 33.13736594 92.84885903 33.13475883 85.27305067 C33.13321031 80.76400648 33.13296271 76.25497317 33.13629532 71.74592972 C33.13921323 67.50228873 33.13712737 63.25867729 33.13140106 59.01503944 C33.1300941 57.4700494 33.13043179 55.92505681 33.13266373 54.38006783 C34.17919759 33.61006538 34.17919759 33.61006538 27 15 C20.41187007 9.07211839 11.4973468 6.81201489 2.84765625 6.30859375 C1 6 1 6 -1 4 C-0.625 1.875 -0.625 1.875 0 0 Z " fill="#1F5359" transform="translate(107,157)"/>
<path d="M0 0 C3.70890929 3.22089491 5.60623678 6.80349333 7.5 11.25 C7.95064819 12.30356689 7.95064819 12.30356689 8.41040039 13.37841797 C15.02667138 29.38512261 18.53761682 47.56584198 11.70703125 64.13671875 C7.65561215 72.60408052 3.73750869 78.63983024 -4.9375 82.8125 C-5.53240234 83.11091797 -6.12730469 83.40933594 -6.74023438 83.71679688 C-12.08762631 86.30575275 -16.98482153 87.15174513 -22.875 87.0625 C-24.04675781 87.04896484 -24.04675781 87.04896484 -25.2421875 87.03515625 C-25.82226562 87.02355469 -26.40234375 87.01195312 -27 87 C-26.49210937 86.175 -25.98421875 85.35 -25.4609375 84.5 C-18.68249002 73.22296308 -11.8365382 60.3462082 -11.90234375 46.921875 C-11.90556641 45.76171875 -11.90878906 44.6015625 -11.91210938 43.40625 C-11.92048828 42.1996875 -11.92886719 40.993125 -11.9375 39.75 C-11.94201172 38.52796875 -11.94652344 37.3059375 -11.95117188 36.046875 C-11.96295185 33.03120054 -11.97940147 30.01562502 -12 27 C-12.09796875 28.12535156 -12.1959375 29.25070313 -12.296875 30.41015625 C-14.53769573 54.0995735 -14.53769573 54.0995735 -20 64 C-20.66 64 -21.32 64 -22 64 C-22.25394531 64.72316406 -22.50789063 65.44632812 -22.76953125 66.19140625 C-26.09448228 73.78073893 -32.48102823 80.04558145 -39 85 C-39.66 85 -40.32 85 -41 85 C-41.82022612 82.64828157 -42.6312654 80.2940149 -43.4375 77.9375 C-43.66759766 77.28072266 -43.89769531 76.62394531 -44.13476562 75.94726562 C-49.02600363 61.55710165 -48.0784237 47.12966232 -41.796875 33.36328125 C-39.42529341 28.82275321 -36.81199241 25.46544764 -33 22 C-32.39800781 21.34515625 -31.79601562 20.6903125 -31.17578125 20.015625 C-22.57194647 10.79155074 -12.01036262 3.95733146 0 0 Z " fill="#225558" transform="translate(437,81)"/>
<path d="M0 0 C0.80824219 0.01546875 1.61648437 0.0309375 2.44921875 0.046875 C4.62581585 0.20128571 6.79552192 0.45656173 8.95672607 0.75758362 C13.27859986 1.30339233 17.51706318 1.37085207 21.86816406 1.33178711 C22.68220703 1.32872055 23.49625 1.32565399 24.33496094 1.32249451 C26.08749652 1.31538667 27.84002415 1.30602208 29.59253693 1.29459953 C32.36668936 1.27710049 35.14078339 1.26687693 37.91497803 1.25868225 C45.79721585 1.23431467 53.67937409 1.19852388 61.56152344 1.15405273 C66.39474728 1.12728824 71.22792658 1.11023666 76.06121063 1.09918404 C77.90003873 1.0929767 79.73885808 1.08297443 81.57764435 1.06910515 C84.14329226 1.04991058 86.70870408 1.04299657 89.27441406 1.03881836 C90.41218292 1.02567596 90.41218292 1.02567596 91.57293701 1.01226807 C95.31317673 1.01922928 98.1390938 1.15900118 101.3125 3.25 C101.5625 6.0625 101.5625 6.0625 101.3125 9.25 C97.51014918 13.41967975 92.03174034 12.98786828 86.77539062 13.33398438 C81.31590337 13.81356666 77.81673999 15.06186036 73.3125 18.25 C65.33744402 29.19738656 66.13247089 46.32854674 65.79492188 59.171875 C65.61962992 64.47693714 65.2841486 69.68250664 64.57050514 74.94518948 C63.06270002 86.46417962 63.10696045 97.90049856 63.22330093 109.49954033 C63.25868094 113.14815259 63.2788655 116.79658278 63.2951355 120.44532776 C63.34352354 130.80593013 63.41490312 141.16628443 63.50439453 151.52661133 C63.55841145 157.90161101 63.59219513 164.27647229 63.61413193 170.65165901 C63.62641331 173.05587972 63.64624502 175.46007585 63.6742897 177.86416435 C63.96024562 202.5846328 61.76886058 224.40132358 43.890625 242.8828125 C39.97216824 246.48066826 35.80476727 249.41905214 31.3125 252.25 C30.66925781 252.69859375 30.02601563 253.1471875 29.36328125 253.609375 C23.48111044 257.60481177 16.95695178 259.8253281 10.3125 262.25 C9.50167969 262.60707031 8.69085938 262.96414063 7.85546875 263.33203125 C-5.62555473 268.19845294 -20.87173478 265.69532514 -33.6875 260.25 C-42.28954834 255.65926954 -48.46058889 249.58432237 -51.5625 240.25 C-53.51035419 232.6672819 -53.22090925 226.31681851 -49.6875 219.25 C-46.9546735 215.00940716 -44.49191156 212.85147052 -39.6875 211.25 C-34.0029256 210.64931044 -27.9445515 210.15035915 -22.6875 212.75 C-17.73484921 216.87720899 -15.09641467 220.71472902 -14.0625 227.125 C-14.32603404 231.58750969 -16.47578082 235.05294614 -18.55859375 238.921875 C-20.01791452 241.93140849 -20.39070616 243.96837126 -19.6875 247.25 C-17.8204009 249.55275556 -16.33102259 250.92823871 -13.6875 252.25 C-3.41049364 253.09260402 4.37801032 251.94257135 13.125 246.5 C36.14299604 222.82434693 26.47411932 164.95725541 26.44287109 134.41967773 C26.43719873 128.83250494 26.44055982 123.24537999 26.44629288 117.65820885 C26.46400955 97.52945127 26.44905362 77.39979883 25.98556137 57.27540779 C25.94911234 55.69167663 25.91507601 54.10788756 25.88379288 52.52404594 C26.38462442 34.613449 26.38462442 34.613449 19.3125 19.25 C12.99728768 14.91817806 6.73726221 13.54979579 -0.8046875 12.8046875 C-3.92977202 12.20338397 -5.44046979 11.48101812 -7.6875 9.25 C-8.14526039 6.11107164 -8.38077664 4.18899494 -6.453125 1.578125 C-4.15706981 -0.14899616 -2.84858189 -0.08943742 0 0 Z M-4.6875 3.25 C-5.3689823 5.14179203 -5.3689823 5.14179203 -5.6875 7.25 C-3.14266462 9.79483538 -1.72001402 9.67888354 1.8125 10.125 C10.1275296 11.41268165 17.96356039 13.32784286 23.3125 20.25 C30.91865795 30.65025678 28.45972388 47.55125425 28.44189453 59.89306641 C28.44325371 61.49978169 28.44503651 63.10649666 28.44720459 64.71321106 C28.45171685 69.02918165 28.45001542 73.34512801 28.4468255 77.66109896 C28.44427038 82.20467977 28.44664806 86.74825869 28.44821167 91.2918396 C28.45002387 98.91559212 28.44765169 106.5393349 28.44287109 114.16308594 C28.4374264 122.9467079 28.43919648 131.73030665 28.4446975 140.51392806 C28.44925111 148.09144304 28.44986832 155.66895108 28.44725883 163.24646699 C28.4457089 167.7565355 28.44546687 172.26659313 28.44879532 176.77666092 C28.45170699 181.01703911 28.44963845 185.25738766 28.44390106 189.49776268 C28.44259118 191.0435945 28.44293701 192.58942886 28.44516373 194.13525963 C28.49700198 233.81302619 28.49700198 233.81302619 15.58203125 247.01953125 C8.70771458 253.25649406 1.99755637 255.37123753 -7.1875 255.5 C-8.84265625 255.53867187 -8.84265625 255.53867187 -10.53125 255.578125 C-15.18007968 255.09483083 -17.70817582 253.20285596 -21 250 C-23.25261435 246.3290729 -23.32712219 244.51414795 -22.6875 240.25 C-21.90174338 238.76549096 -21.06375063 237.30795687 -20.1875 235.875 C-17.46432366 231.30784425 -16.45046749 227.5049141 -17.6875 222.25 C-19.89483982 218.11461642 -23.35085374 214.94694854 -27.6875 213.25 C-33.56011352 212.33442718 -38.25227588 212.3980047 -43.1875 215.9375 C-47.09663157 219.14265661 -49.41464139 222.38773998 -50.15625 227.44921875 C-50.24043883 236.84679637 -48.9864287 243.27552536 -42.7734375 250.46484375 C-32.56055617 260.43632971 -20.25892525 262.4954491 -6.58398438 262.50097656 C-0.21959647 262.41580835 5.32339147 261.46818834 11.3125 259.25 C12.10269531 258.99476563 12.89289063 258.73953125 13.70703125 258.4765625 C29.1337914 253.04355166 44.88017925 241.26580151 52.64453125 226.76171875 C59.54487323 212.35647312 61.44125992 198.86927043 61.50195312 183.09692383 C61.51024643 181.92296555 61.51853973 180.74900726 61.52708435 179.53947449 C61.54440238 177.00346489 61.55959119 174.46744003 61.57286072 171.93140602 C61.59407154 167.89585503 61.6209584 163.86037832 61.64953613 159.82487488 C61.70429223 151.96358188 61.75248767 144.10225613 61.79947662 136.24091339 C61.85900847 126.28305303 61.91995357 116.32521088 61.99004889 106.36741847 C62.02228618 101.7466587 62.04799253 97.12589036 62.0723877 92.50508118 C62.46834861 29.11362995 62.46834861 29.11362995 71.4375 16.1875 C78.83039754 11.20532992 85.77795738 9.79093041 94.625 9.42578125 C97.28289848 9.42641868 97.28289848 9.42641868 99.3125 8.25 C98.9825 6.93 98.6525 5.61 98.3125 4.25 C97.41064468 4.25222061 96.50878937 4.25444122 95.5796051 4.25672913 C87.0053901 4.27691628 78.43118328 4.29206691 69.85694981 4.30181217 C65.45076532 4.306991 61.04460076 4.31399565 56.63842773 4.32543945 C52.3719711 4.33644876 48.10553341 4.34231429 43.83906364 4.34487724 C42.2259078 4.34669947 40.61275277 4.35025608 38.99960518 4.35573006 C29.31193721 4.3872422 19.70324945 4.1306823 10.03697205 3.47142029 C5.12398892 3.17934288 0.23171555 3.1543781 -4.6875 3.25 Z " fill="#F3BB0C" transform="translate(111.6875,153.75)"/>
<path d="M0 0 C13.09966662 -0.04630379 26.19931383 -0.08185928 39.29904556 -0.10362434 C45.38152198 -0.11406952 51.46394248 -0.12824219 57.54638672 -0.15087891 C63.41429953 -0.17258099 69.2821585 -0.1845631 75.15010834 -0.18975449 C77.39084471 -0.19345497 79.63157807 -0.20068091 81.87229156 -0.21146011 C85.00639761 -0.22593989 88.14028004 -0.2279794 91.27441406 -0.22705078 C92.20445755 -0.23424133 93.13450104 -0.24143188 94.09272766 -0.24884033 C94.94805588 -0.246091 95.80338409 -0.24334167 96.68463135 -0.24050903 C97.42575291 -0.24235262 98.16687447 -0.24419621 98.93045425 -0.24609566 C101.30478143 0.03624244 102.93442914 0.8241727 105 2 C105.25 4.8125 105.25 4.8125 105 8 C101.19764918 12.16967975 95.71924034 11.73786828 90.46289062 12.08398438 C85.00340337 12.56356666 81.50423999 13.81186036 77 17 C69.02494402 27.94738656 69.81997089 45.07854674 69.48242188 57.921875 C69.30712992 63.22693714 68.9716486 68.43250664 68.25800514 73.69518948 C66.75020002 85.21417962 66.79446045 96.65049856 66.91080093 108.24954033 C66.94618094 111.89815259 66.9663655 115.54658278 66.9826355 119.19532776 C67.03102354 129.55593013 67.10240312 139.91628443 67.19189453 150.27661133 C67.24591145 156.65161101 67.27969513 163.02647229 67.30163193 169.40165901 C67.31391331 171.80587972 67.33374502 174.21007585 67.3617897 176.61416435 C67.65375393 201.85404275 65.07234869 222.98980689 47.296875 241.92578125 C45.23657349 243.78635965 43.54490393 244.94351465 41 246 C41.99635686 242.34669153 43.54592034 240.33153226 46.25 237.8125 C53.0822788 231.25010332 56.9080981 222.83400542 60 214 C60.28875 213.175 60.5775 212.35 60.875 211.5 C64.0303922 201.79110092 64.15043059 191.98771065 64.18945312 181.84692383 C64.19774643 180.67296555 64.20603973 179.49900726 64.21458435 178.28947449 C64.23190238 175.75346489 64.24709119 173.21744003 64.26036072 170.68140602 C64.28157154 166.64585503 64.3084584 162.61037832 64.33703613 158.57487488 C64.39179223 150.71358188 64.43998767 142.85225613 64.48697662 134.99091339 C64.54650847 125.03305303 64.60745357 115.07521088 64.67754889 105.11741847 C64.70978618 100.4966587 64.73549253 95.87589036 64.7598877 91.25508118 C65.16088576 27.05720534 65.16088576 27.05720534 74.3125 14.9375 C81.42231716 9.81181786 87.02382518 7.94061594 95.75 7.4375 C96.44738281 7.39431641 97.14476562 7.35113281 97.86328125 7.30664062 C99.57531922 7.20110404 101.28763561 7.1001009 103 7 C102.505 5.515 102.505 5.515 102 4 C101.09814468 4.00222061 100.19628937 4.00444122 99.2671051 4.00672913 C90.6928901 4.02691628 82.11868328 4.04206691 73.54444981 4.05181217 C69.13826532 4.056991 64.73210076 4.06399565 60.32592773 4.07543945 C56.0594711 4.08644876 51.79303341 4.09231429 47.52656364 4.09487724 C45.9134078 4.09669947 44.30025277 4.10025608 42.68710518 4.10573006 C34.36037935 4.13281531 26.06483467 4.03147332 17.74975586 3.56030273 C17.05931718 3.52197106 16.3688785 3.48363939 15.65751743 3.44414616 C10.32302367 3.10750353 5.17870727 2.31058194 0 1 C0 0.67 0 0.34 0 0 Z " fill="#E6B515" transform="translate(108,155)"/>
<path d="M0 0 C12.05690183 16.15809862 14.43711667 36.56658979 13 56 C10.75252818 68.57818037 3.75661029 77.33977087 -6.3125 84.6875 C-15.13699124 88.99713526 -23.26576601 89.37870939 -33 89 C-31.36394195 85.49296275 -29.2992791 82.36333048 -27.1875 79.125 C-22.4371537 71.61551586 -18 63.02638498 -18 54 C-18.99 54.495 -18.99 54.495 -20 55 C-19.79503906 53.99582031 -19.59007812 52.99164063 -19.37890625 51.95703125 C-17.65939378 43.30742682 -16.43835964 34.82765619 -16 26 C-15.34 26.33 -14.68 26.66 -14 27 C-13.17262114 49.23994374 -14.73548395 67.84516139 -29 86 C-17.91565159 86.40306721 -7.55134959 84.05482625 0.85546875 76.28515625 C6.65901312 69.22840436 10.52196412 59.08268173 11 50 C11.061875 49.0203125 11.12375 48.040625 11.1875 47.03125 C11.69280605 33.00900725 7.95292853 13.03988914 -1.71484375 2.05078125 C-2.35099609 1.53064453 -2.35099609 1.53064453 -3 1 C-16.10960091 5.70055961 -26.57806466 12.79108166 -36 23 C-37.32863854 24.33801165 -38.6608188 25.6725403 -40 27 C-36.20895002 15.42081475 -22.96457876 7.44639611 -12.625 2.125 C-4.36258214 -1.9389254 -4.36258214 -1.9389254 0 0 Z " fill="#EFBF23" transform="translate(440,81)"/>
<path d="M0 0 C49.5 0.495 49.5 0.495 100 1 C100 1.33 100 1.66 100 2 C94.84412309 2.80748573 89.74968912 3.2878547 84.5390625 3.5546875 C83.72216949 3.59673309 82.90527649 3.63877869 82.06362915 3.68209839 C72.51824508 4.12828041 62.9739891 4.15036512 53.41992188 4.13037109 C50.3710435 4.12499302 47.32231156 4.13036489 44.2734375 4.13671875 C12.44355224 4.14910536 12.44355224 4.14910536 0 1 C0 0.67 0 0.34 0 0 Z " fill="#E5B30F" transform="translate(108,155)"/>
<path d="M0 0 C0.90105469 0.02707031 1.80210938 0.05414063 2.73046875 0.08203125 C3.76107422 0.13423828 3.76107422 0.13423828 4.8125 0.1875 C1.8288065 3.61186208 -0.7123384 3.76531494 -5.1875 4.1875 C-4.8575 5.5075 -4.5275 6.8275 -4.1875 8.1875 C-3.43726562 8.28546875 -2.68703125 8.3834375 -1.9140625 8.484375 C6.76479972 9.75231961 16.60959715 11.45291976 22.8125 18.1875 C27.61292219 25.56426648 28.49570897 31.77238764 28.1875 40.4375 C28.16751953 41.55688965 28.14753906 42.6762793 28.12695312 43.82958984 C28.05479138 47.28408977 27.94118286 50.73467357 27.8125 54.1875 C27.77286133 55.2919043 27.73322266 56.39630859 27.69238281 57.53417969 C27.45792841 63.75566182 27.16129781 69.97142473 26.8125 76.1875 C26.4825 76.1875 26.1525 76.1875 25.8125 76.1875 C25.782771 74.5629187 25.782771 74.5629187 25.75244141 72.90551758 C25.67544647 68.82555771 25.58688773 64.74591178 25.49511719 60.66625977 C25.45721007 58.91209178 25.42229627 57.15785611 25.390625 55.40356445 C26.10949249 35.94808839 26.10949249 35.94808839 18.8125 19.1875 C12.49728768 14.85567806 6.23726221 13.48729579 -1.3046875 12.7421875 C-4.42977202 12.14088397 -5.94046979 11.41851812 -8.1875 9.1875 C-8.6432692 6.06222551 -8.8670709 4.13404518 -6.984375 1.51171875 C-4.55834019 -0.27616343 -2.97872294 -0.11605414 0 0 Z " fill="#F3BF1D" transform="translate(112.1875,153.8125)"/>
<path d="M0 0 C0.66 0.33 1.32 0.66 2 1 C9.08883411 22.64356796 3.08335016 48.86091507 -6 69 C-6.67513773 70.66325322 -7.34517778 72.32864424 -8 74 C-8.99 74 -9.98 74 -11 74 C-11.33 73.34 -11.66 72.68 -12 72 C-11.19710203 70.11349162 -10.30377979 68.26532032 -9.375 66.4375 C-6.81143331 61.07133942 -4.84146142 55.77296048 -3.1875 50.0625 C-2.98108887 49.35343506 -2.77467773 48.64437012 -2.56201172 47.91381836 C-0.62568658 41.03425511 0.14632244 34.67205362 0.09765625 27.5390625 C0.0962413 26.74849457 0.09482635 25.95792664 0.09336853 25.1434021 C0.08780504 22.63722834 0.07525944 20.13114642 0.0625 17.625 C0.05748028 15.91797005 0.0529182 14.21093868 0.04882812 12.50390625 C0.03784759 8.33590252 0.02060839 4.16796679 0 0 Z " fill="#FBC21E" transform="translate(400,257)"/>
<path d="M0 0 C0.33 0 0.66 0 1 0 C1.32281114 8.20163511 1.61824073 16.40374293 1.88427734 24.60742188 C1.97601182 27.29675156 2.08603021 29.98379042 2.20703125 32.671875 C2.56362472 44.98095321 0.37583146 57.50995243 -8 67 C-12.32379847 71.41027444 -17.49481473 76.67772478 -23.97949219 77.14160156 C-26.12676495 77.07291273 -28.23790738 76.90584671 -30.375 76.6875 C-31.11105469 76.62626953 -31.84710938 76.56503906 -32.60546875 76.50195312 C-34.405013 76.35004355 -36.20276611 76.17716201 -38 76 C-38 75.67 -38 75.34 -38 75 C-36.44152344 74.88785156 -36.44152344 74.88785156 -34.8515625 74.7734375 C-25.09947153 73.9199832 -17.2273911 72.53421623 -10.203125 65.09765625 C0.42332809 50.97289063 -0.9178161 31.44759112 -0.4375 14.6875 C-0.39415585 13.25324685 -0.35053749 11.81900196 -0.30664062 10.38476562 C-0.20127943 6.92326614 -0.09958188 3.46167116 0 0 Z " fill="#F1BC15" transform="translate(138,332)"/>
<path d="M0 0 C0.66 0.33 1.32 0.66 2 1 C2.89877082 25.15895973 -0.29586055 41.78864335 -14 62 C-10.37 62 -6.74 62 -3 62 C-3 62.33 -3 62.66 -3 63 C-7.62 63 -12.24 63 -17 63 C-15.24651485 59.49302969 -13.3242766 56.40166316 -11.1875 53.125 C-6.4371537 45.61551586 -2 37.02638498 -2 28 C-2.66 28.33 -3.32 28.66 -4 29 C-3.79503906 27.99582031 -3.59007812 26.99164063 -3.37890625 25.95703125 C-1.65939378 17.30742682 -0.43835964 8.82765619 0 0 Z " fill="#F1C023" transform="translate(424,107)"/>
<path d="M0 0 C0.66 0.33 1.32 0.66 2 1 C0.66986178 4.99041467 -1.847655 6.22617424 -5.25 8.375 C-5.87318115 8.77275635 -6.4963623 9.1705127 -7.13842773 9.58032227 C-13.11499081 13.27600757 -19.36310913 15.72684205 -26 18 C-26.80308594 18.35191406 -27.60617188 18.70382812 -28.43359375 19.06640625 C-34.27892418 21.19278977 -40.30336027 21.13545866 -46.4375 21.0625 C-47.16904297 21.05798828 -47.90058594 21.05347656 -48.65429688 21.04882812 C-50.43623419 21.03718148 -52.21812863 21.01925191 -54 21 C-54 20.67 -54 20.34 -54 20 C-52.82824219 19.81824219 -51.65648438 19.63648438 -50.44921875 19.44921875 C-41.83070768 18.08351905 -33.31594094 16.71841547 -25 14 C-24.20980469 13.74863281 -23.41960937 13.49726563 -22.60546875 13.23828125 C-14.99926346 10.52265707 -5.77749403 5.77749403 0 0 Z " fill="#EFBA13" transform="translate(148,398)"/>
<path d="M0 0 C0.33 0 0.66 0 1 0 C1.94102489 9.45207219 -0.45998276 17.18292981 -6.08984375 24.84375 C-12.22606787 31.97645495 -18.39430379 36.7797324 -28 38 C-32.33939208 38.14963421 -36.66022372 38.11907923 -41 38 C-41 37.67 -41 37.34 -41 37 C-40.07960938 36.93683594 -39.15921875 36.87367188 -38.2109375 36.80859375 C-27.32177675 35.7551617 -15.81506819 33.25819435 -8.4375 24.375 C-3.88702873 17.17008716 -0.59479096 8.52533716 0 0 Z " fill="#E9B819" transform="translate(451,131)"/>
<path d="M0 0 C0.33 0 0.66 0 1 0 C0.88140625 0.96421875 0.7628125 1.9284375 0.640625 2.921875 C0.51171875 4.18515625 0.3828125 5.4484375 0.25 6.75 C0.04117188 8.62945312 0.04117188 8.62945312 -0.171875 10.546875 C-0.32019594 14.02115772 -0.32019594 14.02115772 1.734375 16.328125 C6.47903065 19.82935365 10.04212101 20.3157904 15.85546875 20.65625 C16.56316406 20.7696875 17.27085938 20.883125 18 21 C18.33 21.66 18.66 22.32 19 23 C16.93816367 23.08150744 14.87538651 23.1394194 12.8125 23.1875 C11.08966797 23.23970703 11.08966797 23.23970703 9.33203125 23.29296875 C4.22681421 22.84409269 1.78415982 20.76673404 -1.8125 17.25 C-4.45044658 13.33076509 -4.73217376 11.63710048 -4 7 C-2.85133519 4.47589535 -1.52515645 2.33539581 0 0 Z " fill="#EDB70D" transform="translate(92,387)"/>
<path d="M0 0 C2.08304538 -0.05418326 4.16649768 -0.09287551 6.25 -0.125 C7.99023438 -0.15980469 7.99023438 -0.15980469 9.765625 -0.1953125 C12.82786046 -0.0103949 14.44202751 0.39176977 17 2 C17.25 4.8125 17.25 4.8125 17 8 C14.8194961 10.1805039 13.50312129 10.94282713 10.421875 11.29296875 C9.54015625 11.25816406 8.6584375 11.22335938 7.75 11.1875 C6.85796875 11.16042969 5.9659375 11.13335937 5.046875 11.10546875 C4.37140625 11.07066406 3.6959375 11.03585938 3 11 C2.67 10.34 2.34 9.68 2 9 C6.29 8.34 10.58 7.68 15 7 C14.67 6.01 14.34 5.02 14 4 C11.03 3.67 8.06 3.34 5 3 C5 2.67 5 2.34 5 2 C3.35 1.67 1.7 1.34 0 1 C0 0.67 0 0.34 0 0 Z " fill="#F2BF20" transform="translate(196,155)"/>
<path d="M0 0 C2 1 2 1 3.1171875 4.28125 C4.41702422 9.9791644 4.21538489 15.68755651 4.125 21.5 C4.11597656 22.60859375 4.10695313 23.7171875 4.09765625 24.859375 C4.07426167 27.57314592 4.04148175 30.28645545 4 33 C2.53198242 31.9284668 2.53198242 31.9284668 1 30 C0.56762695 26.90551758 0.56762695 26.90551758 0.48828125 23.14453125 C0.47033005 22.48289474 0.45237885 21.82125824 0.43388367 21.13957214 C0.37979102 19.03061253 0.34589069 16.92187901 0.3125 14.8125 C0.27932573 13.38082792 0.24483595 11.94918567 0.20898438 10.51757812 C0.12406743 7.0119361 0.05725079 3.50621527 0 0 Z " fill="#FCCF4F" transform="translate(400,257)"/>
<path d="M0 0 C0.90105469 0.02707031 1.80210938 0.05414063 2.73046875 0.08203125 C3.76107422 0.13423828 3.76107422 0.13423828 4.8125 0.1875 C1.8288065 3.61186208 -0.7123384 3.76531494 -5.1875 4.1875 C-4.8575 5.5075 -4.5275 6.8275 -4.1875 8.1875 C-1.8775 8.8475 0.4325 9.5075 2.8125 10.1875 C2.4825 10.8475 2.1525 11.5075 1.8125 12.1875 C-1.40416704 12.40681821 -3.62112303 12.45578383 -6.5625 11.0625 C-8.1875 9.1875 -8.1875 9.1875 -8.625 6.1875 C-8.1875 3.1875 -8.1875 3.1875 -6.984375 1.51171875 C-4.55834019 -0.27616343 -2.97872294 -0.11605414 0 0 Z " fill="#F8C21E" transform="translate(112.1875,153.8125)"/>
<path d="M0 0 C0.33 0 0.66 0 1 0 C1.19257595 5.19574472 1.37124807 10.39171265 1.53710938 15.58837891 C1.59547094 17.35576154 1.65761527 19.1230235 1.72363281 20.89013672 C1.81792511 23.43174265 1.89855832 25.97347345 1.9765625 28.515625 C2.00875885 29.30430969 2.0409552 30.09299438 2.0741272 30.90557861 C2.17949032 34.77324177 2.22720219 37.73140976 0 41 C-1.66880615 37.66238769 -0.99628371 33.93240477 -0.87890625 30.2734375 C-0.85529526 29.41062164 -0.83168427 28.54780579 -0.80735779 27.65884399 C-0.73065703 24.89739794 -0.64666038 22.13622782 -0.5625 19.375 C-0.50928573 17.50522193 -0.45654529 15.63543031 -0.40429688 13.765625 C-0.27503321 9.17690791 -0.13922496 4.58842523 0 0 Z " fill="#FCCB3B" transform="translate(138,332)"/>
<path d="M0 0 C0.66 0.33 1.32 0.66 2 1 C2.05805933 5.24994263 2.09361654 9.49978324 2.125 13.75 C2.14175781 14.9565625 2.15851563 16.163125 2.17578125 17.40625 C2.18222656 18.56640625 2.18867188 19.7265625 2.1953125 20.921875 C2.20578613 21.99018555 2.21625977 23.05849609 2.22705078 24.15917969 C2 27 2 27 0 31 C0 26.71 0 22.42 0 18 C-0.33 18 -0.66 18 -1 18 C-0.505 9.09 -0.505 9.09 0 0 Z " fill="#DDB21D" transform="translate(424,107)"/>
<path d="M0 0 C2.84353714 2.84353714 3.26840663 6.20417755 4.1875 10 C4.47270508 11.10601562 4.47270508 11.10601562 4.76367188 12.234375 C6.1266598 17.7466804 6.1266598 17.7466804 5 20 C3 19 3 19 1.89453125 16.015625 C1.53746094 14.77296875 1.18039062 13.5303125 0.8125 12.25 C0.44769531 11.01765625 0.08289063 9.7853125 -0.29296875 8.515625 C-0.96859999 5.15613263 -0.97013621 3.23790684 0 0 Z " fill="#FBC62D" transform="translate(396,238)"/>
<path d="M0 0 C-3.4963871 3.4963871 -8.44315453 3.04618925 -13.18359375 3.09765625 C-14.60159587 3.09112168 -16.01958311 3.07936452 -17.4375 3.0625 C-18.16904297 3.05798828 -18.90058594 3.05347656 -19.65429688 3.04882812 C-21.43623419 3.03718148 -23.21812863 3.01925191 -25 3 C-25 2.67 -25 2.34 -25 2 C-22.14776949 1.4657727 -19.29409862 0.94736834 -16.4375 0.4375 C-15.63763672 0.28603516 -14.83777344 0.13457031 -14.01367188 -0.02148438 C-9.00789368 -0.90004953 -4.98797354 -1.01098524 0 0 Z " fill="#FAC936" transform="translate(119,416)"/>
<path d="M0 0 C0.33 0 0.66 0 1 0 C0.87431641 1.46373047 0.87431641 1.46373047 0.74609375 2.95703125 C0.64425781 4.22933594 0.54242188 5.50164062 0.4375 6.8125 C0.33308594 8.07707031 0.22867188 9.34164063 0.12109375 10.64453125 C-0.19597178 13.99581184 -0.19597178 13.99581184 1 17 C-0.9375 16.625 -0.9375 16.625 -3 16 C-4.55944339 12.88111322 -4.28316275 10.4545855 -4 7 C-2.87302723 4.46062031 -1.52802548 2.33978902 0 0 Z " fill="#E4B312" transform="translate(92,387)"/>
<path d="M0 0 C0 0.66 0 1.32 0 2 C-7.76411588 7.82308691 -16.76947399 7.25327663 -26 7 C-26 6.67 -26 6.34 -26 6 C-25.02160156 5.90203125 -24.04320312 5.8040625 -23.03515625 5.703125 C-16.10606295 4.91278594 -9.90286171 4.07501735 -3.63671875 0.8046875 C-2 0 -2 0 0 0 Z " fill="#DEB21B" transform="translate(436,162)"/>
<path d="M0 0 C0.66 0.33 1.32 0.66 2 1 C0.02 3.97 -1.96 6.94 -4 10 C-0.37 10 3.26 10 7 10 C7 10.33 7 10.66 7 11 C2.38 11 -2.24 11 -7 11 C-5.55311454 8.10622907 -4.24918136 5.81466922 -2.375 3.25 C-1.92898438 2.63640625 -1.48296875 2.0228125 -1.0234375 1.390625 C-0.68570312 0.93171875 -0.34796875 0.4728125 0 0 Z " fill="#F2C538" transform="translate(414,159)"/>
<path d="M0 0 C5.61 0 11.22 0 17 0 C17.33 0.99 17.66 1.98 18 3 C11.71739294 3.23268915 6.11980533 2.40454548 0 1 C0 0.67 0 0.34 0 0 Z " fill="#E7B410" transform="translate(108,155)"/>
<path d="M0 0 C0.66 0.33 1.32 0.66 2 1 C1.34 5.62 0.68 10.24 0 15 C-0.66 15 -1.32 15 -2 15 C-2.19392201 9.47322267 -1.7479503 5.24385089 0 0 Z " fill="#FCC41D" transform="translate(61,374)"/>
<path d="M0 0 C0.33 0 0.66 0 1 0 C0.67 4.29 0.34 8.58 0 13 C-0.99 13 -1.98 13 -3 13 C-4 11 -4 11 -3.4765625 8.90625 C-3.19554687 8.1121875 -2.91453125 7.318125 -2.625 6.5 C-2.21121094 5.30890625 -2.21121094 5.30890625 -1.7890625 4.09375 C-1 2 -1 2 0 0 Z " fill="#EED98F" transform="translate(424,123)"/>
<path d="M0 0 C0.33 0.66 0.66 1.32 1 2 C-2.21341369 3.60670684 -5.62958968 2.82510855 -9.125 2.5625 C-10.25615234 2.48418945 -10.25615234 2.48418945 -11.41015625 2.40429688 C-13.2737937 2.27454996 -15.13694996 2.13792512 -17 2 C-17 1.67 -17 1.34 -17 1 C-15.10440036 0.83069605 -13.20850769 0.66467136 -11.3125 0.5 C-10.25675781 0.4071875 -9.20101562 0.314375 -8.11328125 0.21875 C-5.39363975 0.0276585 -2.72460144 -0.04043935 0 0 Z " fill="#F3C535" transform="translate(117,406)"/>
<path d="M0 0 C4.24822374 0.47202486 6.19989709 2.96655518 9 6 C4.73303602 6 3.33303391 5.49977543 0 3 C0 2.01 0 1.02 0 0 Z " fill="#F0BD1D" transform="translate(85,366)"/>
<path d="M0 0 C0.66 0.33 1.32 0.66 2 1 C2.29296875 7.0546875 2.29296875 7.0546875 2 9 C1.01 9.66 0.02 10.32 -1 11 C-1.14285714 3.57142857 -1.14285714 3.57142857 0 0 Z " fill="#EAB60F" transform="translate(173,345)"/>
<path d="M0 0 C1.37478516 0.01740234 1.37478516 0.01740234 2.77734375 0.03515625 C3.69644531 0.04417969 4.61554688 0.05320313 5.5625 0.0625 C6.27277344 0.07410156 6.98304687 0.08570313 7.71484375 0.09765625 C5.26950525 3.06293383 3.26882028 3.65347839 -0.47265625 4.28515625 C-1.37371094 4.44371094 -2.27476563 4.60226563 -3.203125 4.765625 C-4.23373047 4.92998047 -4.23373047 4.92998047 -5.28515625 5.09765625 C-2.87806166 0.12299409 -2.87806166 0.12299409 0 0 Z " fill="#F6C635" transform="translate(109.28515625,153.90234375)"/>
<path d="M0 0 C0.33 0 0.66 0 1 0 C1.29341888 5.67276511 1.00559652 8.99067246 -2 14 C-2.33 14 -2.66 14 -3 14 C-3.125 11.125 -3.125 11.125 -3 8 C-2.34 7.34 -1.68 6.68 -1 6 C-0.60235737 4.01178687 -0.26224651 2.01055661 0 0 Z " fill="#FACA3B" transform="translate(96,377)"/>
<path d="M0 0 C0.99 0.33 1.98 0.66 3 1 C3.29296875 7.0546875 3.29296875 7.0546875 3 9 C2.01 9.66 1.02 10.32 0 11 C0 7.37 0 3.74 0 0 Z " fill="#D8AF1F" transform="translate(137,181)"/>
<path d="M0 0 C0.66 0 1.32 0 2 0 C2.66 2.97 3.32 5.94 4 9 C3.01 8.67 2.02 8.34 1 8 C0.67 5.36 0.34 2.72 0 0 Z " fill="#FBC21B" transform="translate(398,249)"/>
<path d="M0 0 C0 0.33 0 0.66 0 1 C-0.7425 1.144375 -1.485 1.28875 -2.25 1.4375 C-4.91958229 1.93059024 -4.91958229 1.93059024 -7.125 2.6875 C-9 3 -9 3 -12 1 C-8.0186217 -0.3271261 -4.14954773 -0.06915913 0 0 Z " fill="#C6A319" transform="translate(204,163)"/>
</svg>
